<?xml version="1.0" encoding="utf-8"?>
<!DOCTYPE svg PUBLIC "-//W3C//DTD SVG 1.1//EN" "http://www.w3.org/Graphics/SVG/1.1/DTD/svg11.dtd">
<svg xmlns="http://www.w3.org/2000/svg" xml:space="preserve" width="128" height="128">
  <circle cx="64" cy="64" r="64" fill="#E65A2E"/>
  <path fill="#CC5028" d="M120.471 94.125c-.072-.184-.146-.365-.222-.548-.078-.193-.153-.386-.233-.579-.084-.21-.168-.419-.254-.629-.08-.199-.16-.398-.242-.6-.082-.205-.164-.408-.248-.613-.082-.205-.164-.409-.248-.614-.084-.21-.168-.419-.254-.629-.08-.199-.16-.399-.242-.599-.082-.205-.164-.409-.248-.614-.082-.205-.163-.409-.248-.614-.084-.21-.168-.419-.254-.629-.08-.199-.159-.398-.242-.6-.082-.205-.163-.408-.248-.613-.082-.205-.163-.409-.248-.614-.082-.205-.163-.409-.248-.614-.084-.209-.167-.418-.254-.629-.08-.199-.159-.397-.242-.599-.082-.205-.163-.409-.248-.614-.082-.205-.163-.408-.248-.613-.084-.211-.167-.42-.254-.629-.08-.199-.159-.399-.242-.6-.082-.205-.162-.409-.248-.614-.082-.204-.162-.409-.248-.614-.084-.209-.166-.418-.254-.629-.08-.199-.158-.397-.242-.599-.086-.217-.172-.433-.263-.649-.078-.192-.153-.386-.233-.578-.082-.205-.164-.409-.248-.614-.084-.21-.168-.419-.254-.629-.08-.199-.16-.398-.242-.599-.082-.205-.163-.41-.248-.615-.082-.204-.163-.408-.248-.613-.084-.21-.168-.419-.254-.629-.08-.199-.159-.399-.242-.6-.082-.205-.163-.408-.248-.613-.082-.205-.163-.409-.248-.614-.084-.21-.167-.419-.254-.629-.08-.199-.159-.397-.242-.599-.082-.205-.163-.41-.248-.614-.082-.205-.163-.409-.248-.614-.082-.205-.163-.409-.248-.613-.084-.211-.167-.42-.254-.63-.08-.198-.158-.397-.242-.599-.082-.205-.162-.409-.248-.614-.082-.205-.162-.409-.248-.614-.084-.209-.166-.418-.254-.629-.08-.199-.158-.398-.242-.599-.082-.205-.162-.409-.248-.614-.082-.206-.164-.41-.248-.617s-.166-.412-.252-.619c-.086-.215-.17-.43-.26-.644-.078-.192-.152-.384-.232-.576-.084-.206-.164-.411-.25-.616-.082-.205-.161-.408-.246-.611-.084-.208-.166-.415-.252-.623-.081-.203-.161-.405-.245-.607-.082-.203-.162-.406-.247-.611-.083-.205-.164-.41-.249-.616-.083-.207-.165-.413-.251-.62-.081-.203-.161-.405-.245-.607-.082-.203-.162-.406-.247-.611-.083-.205-.164-.41-.249-.616-.083-.207-.165-.413-.251-.62-.081-.203-.161-.405-.245-.607-.081-.203-.161-.406-.247-.61-.082-.206-.164-.411-.248-.617-.082-.204-.162-.407-.248-.611-.084-.208-.166-.415-.252-.622-.08-.203-.16-.406-.244-.607-.082-.204-.162-.407-.248-.611-.082-.206-.164-.411-.248-.617-.084-.207-.166-.412-.252-.619-.08-.203-.16-.406-.244-.608-.082-.203-.162-.406-.248-.611-.082-.205-.163-.41-.248-.616-.088-.218-.174-.435-.264-.651-.078-.193-.156-.387-.234-.58-.082-.203-.162-.404-.246-.607-.083-.207-.165-.413-.25-.62-.082-.204-.163-.407-.247-.611-.082-.204-.163-.407-.247-.611-.083-.207-.165-.413-.25-.62-.082-.203-.162-.404-.246-.607-.083-.207-.165-.413-.25-.62-.082-.204-.163-.407-.247-.611-.083-.206-.164-.411-.249-.617-.082-.202-.162-.405-.246-.608-2.115-5.252-4.945-10.619-8.729-15.808-.695-.954-1.98-1.273-3.042-.738C80.186 27.743 75.382 34.483 73 39c-.746-.604-1.549-1.105-2.395-1.525-.01-.006-.021-.01-.029-.015-.344-.17-.693-.325-1.053-.466-.088-.034-.174-.066-.262-.1-.25-.092-.505-.176-.764-.254-.178-.055-.354-.105-.53-.15-.163-.043-.329-.082-.497-.119-.258-.057-.51-.107-.76-.148-.115-.02-.23-.037-.348-.055-.305-.043-.602-.076-.893-.1-.097-.009-.191-.019-.289-.025-.405-.027-.803-.043-1.18-.043-.512 0-1.008.027-1.499.07H62.5c-2.863.25-5.389 1.221-7.5 2.93-3-6-7.888-11.607-14.157-14.741-.191-.097-.391-.155-.592-.198-.038-.008-.075-.016-.112-.021-.204-.033-.408-.043-.61-.023-.007.002-.014.003-.021.004-.664.07-1.292.407-1.707.978C24.74 42.909 23 62.953 23 73c0 3.123.625 6.064 1.73 8.811.077.207.166.408.248.613.078.208.167.411.25.617.077.206.165.406.247.609.078.209.167.412.25.617.077.207.166.409.248.613.077.206.165.408.247.612.078.208.167.411.25.616.077.207.165.406.247.61.077.207.166.409.248.614.077.207.166.409.248.614.078.208.167.411.25.616.077.207.165.408.247.61.077.207.166.409.248.614.077.207.166.408.248.613.078.209.167.412.25.617.077.207.165.406.247.61.078.208.167.411.25.617.077.206.165.407.247.61.078.209.167.414.25.619.077.205.165.405.246.608.077.207.166.409.248.614.077.207.166.408.248.613.077.207.166.41.248.614.078.208.167.411.25.617.077.206.165.407.247.61.077.207.166.408.248.613.077.207.166.409.248.614.078.208.167.411.25.617.077.206.165.405.247.61.078.207.167.41.25.617.077.205.165.406.247.61.078.209.167.413.25.619.077.205.165.405.246.608.077.207.166.408.248.613.077.207.166.409.248.614.077.207.166.409.248.614.078.207.167.41.25.617.077.205.165.406.247.609.077.207.166.409.248.614.077.207.166.409.248.614.078.207.167.41.25.617.077.207.166.408.248.612.077.206.165.407.247.611.077.207.166.409.248.614.078.207.167.41.25.617.077.207.165.407.248.611.077.206.165.408.247.611.077.207.166.41.248.615.077.207.166.408.248.613.078.208.167.411.25.617.077.206.165.407.247.609.077.207.166.41.248.615.077.207.166.408.248.613.078.208.167.411.25.617.077.207.166.408.248.613.077.205.165.406.247.611.077.206.166.408.248.613.077.208.167.411.25.617.077.206.165.406.247.609.077.209.166.412.249.616.077.206.165.408.247.612.077.207.166.409.248.613.078.209.167.412.25.617.077.207.165.407.247.61.077.207.166.409.248.614.077.207.166.408.248.613.078.209.167.414.251.621.076.205.164.404.246.606.06.159.126.315.191.474C48.71 126.598 56.189 128 64 128c24.453 0 45.695-13.719 56.471-33.875z"/>
  <path fill="#263740" d="M64 104c-19.492 0-41-12.428-41-31 0-10.047 1.74-30.091 14.801-48.003.693-.954 1.981-1.273 3.042-.738C47.814 27.743 52.618 34.483 55 39c2.475-2.002 5.512-3 9-3s6.525.998 9 3c2.382-4.517 7.186-11.257 14.157-14.741 1.061-.535 2.347-.216 3.042.738C103.26 42.909 105 62.953 105 73c0 18.572-21.507 31-41 31z"/>
  <path fill="#1F2C33" d="M90.199 24.997c-.695-.954-1.981-1.273-3.042-.738-.154.077-.302.164-.453.244.183.14.354.3.495.494C100.26 42.909 102 62.953 102 73c0 18.098-20.42 30.354-39.5 30.971.501.015 1.001.029 1.5.029 19.493 0 41-12.428 41-31 0-10.047-1.74-30.091-14.801-48.003z"/>
  <path fill="#446373" d="M28.752 88.622C36.454 98.205 50.693 104 64 104s27.547-5.795 35.248-15.378C97.184 76.448 82.193 67 64 67c-18.194 0-33.182 9.447-35.248 21.622z"/>
  <path fill="#3C5866" d="M66.893 103.9c.578-.034 1.156-.08 1.736-.137.194-.021.391-.035.584-.058.754-.083 1.508-.181 2.26-.297.102-.017.201-.036.303-.052.658-.107 1.316-.229 1.973-.36.204-.041.408-.085.611-.129.627-.136 1.254-.28 1.875-.438.129-.031.258-.062.385-.095.756-.199 1.508-.414 2.253-.646.116-.037.233-.078.351-.114.635-.202 1.264-.417 1.889-.644.16-.06.322-.117.481-.178 1.474-.552 2.914-1.168 4.312-1.85.103-.049.201-.102.303-.15.617-.306 1.225-.624 1.822-.955.102-.057.205-.111.307-.169 1.364-.769 2.676-1.601 3.923-2.491.082-.059.163-.119.244-.178.574-.417 1.136-.846 1.679-1.288.045-.037.092-.073.137-.108 1.183-.971 2.287-2.002 3.31-3.086.067-.072.136-.146.203-.22.491-.53.966-1.073 1.414-1.631.002-.002.004-.005.006-.007-.179-1.055-.461-2.085-.827-3.094-6.658 10.99-21.572 17.934-35.777 18.436.446.016.899.039 1.35.039.746 0 1.497-.023 2.248-.061.214-.009.429-.024.645-.039z"/>
  <path fill="#1F2C33" d="M72.104 40.125c.242-.455.459-.709.896-1.125-3.208-2.521-6.482-3-9-3-.512 0-1.009.028-1.5.07 2.863.25 7.493 2.346 9.604 4.055zM53 40c.689-.558 1.227-.598 2-1-3-6-7.888-11.607-14.157-14.741-.845-.427-1.829-.303-2.547.244C45.02 28.049 50.671 35.583 53 40z"/>
  <circle cx="52.152" cy="60" r="4.848" fill="#FFD464"/>
  <circle cx="52.152" cy="60" r="2.424" fill="#242424"/>
  <circle cx="74.848" cy="60" r="4.848" fill="#FFD464"/>
  <circle cx="74.848" cy="60" r="2.424" fill="#242424"/>
  <path fill="#242424" d="M52 76c-.1 0-.199-.016-.298-.046l-16-5c-.527-.164-.821-.726-.656-1.252.165-.528.729-.82 1.253-.656l16 5c.527.164.821.726.656 1.252-.135.429-.529.702-.955.702zm0 7c-.1 0-.199-.016-.298-.046l-16-5c-.527-.164-.821-.726-.656-1.252.165-.528.729-.82 1.253-.656l16 5c.527.164.821.726.656 1.252-.135.429-.529.702-.955.702zm26.999-7c.099 0 .199-.016.298-.046l16.001-5c.526-.164.82-.726.656-1.252-.165-.528-.729-.82-1.253-.656l-16 5c-.527.164-.821.726-.656 1.252.135.429.528.702.954.702zm0 7c.099 0 .199-.016.298-.046l16.001-5c.526-.164.82-.726.656-1.252-.165-.528-.729-.82-1.253-.656l-16 5c-.527.164-.821.726-.656 1.252.135.429.528.702.954.702z"/>
  <path fill="#446373" d="M51.055 40.121c-1.467-2.6-5.157-8.322-10.823-11.645-4.54 6.507-7.553 13.316-9.543 19.77 6.696-4.671 14.05-6.982 20.366-8.125zm25.58 0c1.467-2.6 5.155-8.322 10.821-11.645 4.54 6.507 7.554 13.316 9.544 19.77-6.695-4.671-14.05-6.982-20.365-8.125z"/>
  <path fill="#242424" d="M71.295 70.76c-.206-.462-.664-.76-1.17-.76h-12.25c-.506 0-.964.298-1.17.76-.205.463-.12 1.001.219 1.377l5.904 6.563-4.537 4.564c-.391.393-.389 1.025.004 1.414.393.391 1.025.387 1.414-.004L64 80.355l4.291 4.317c.195.196.452.295.709.295.255 0 .51-.097.705-.291.393-.389.395-1.022.004-1.413l-4.537-4.565 5.904-6.563c.339-.374.424-.912.219-1.375z"/>
</svg>